<svg xmlns="http://www.w3.org/2000/svg" version="1.1" xmlns:xlink="http://www.w3.org/1999/xlink" xmlns:svgjs="http://svgjs.dev/svgjs" width="800" height="250" preserveAspectRatio="none" viewBox="0 0 800 250"><g mask="url(&quot;#SvgjsMask1046&quot;)" fill="none"><path d="M9 250L259 0L458.5 0L208.5 250z" fill="url(&quot;#SvgjsLinearGradient1047&quot;)"></path><path d="M196 250L446 0L555.5 0L305.5 250z" fill="url(&quot;#SvgjsLinearGradient1047&quot;)"></path><path d="M378 250L628 0L847 0L597 250z" fill="url(&quot;#SvgjsLinearGradient1047&quot;)"></path><path d="M778 250L528 0L264 0L514 250z" fill="url(&quot;#SvgjsLinearGradient1048&quot;)"></path><path d="M608 250L358 0L232 0L482 250z" fill="url(&quot;#SvgjsLinearGradient1048&quot;)"></path><path d="M435 250L185 0L-40 0L210 250z" fill="url(&quot;#SvgjsLinearGradient1048&quot;)"></path><path d="M631.6695865801269 250L800 81.66958658012683L800 250z" fill="url(&quot;#SvgjsLinearGradient1047&quot;)"></path><path d="M0 250L168.33041341987317 250L 0 81.66958658012683z" fill="url(&quot;#SvgjsLinearGradient1048&quot;)"></path></g><defs><mask id="SvgjsMask1046"><rect width="800" height="250" fill="#ffffff"></rect></mask><linearGradient x1="0%" y1="100%" x2="100%" y2="0%" id="SvgjsLinearGradient1047"><stop stop-color="rgba(72, 28, 157, 1)" offset="0"></stop><stop stop-opacity="0" stop-color="rgba(72, 28, 157, 1)" offset="0.66"></stop></linearGradient><linearGradient x1="100%" y1="100%" x2="0%" y2="0%" id="SvgjsLinearGradient1048"><stop stop-color="rgba(72, 28, 157, 1)" offset="0"></stop><stop stop-opacity="0" stop-color="rgba(72, 28, 157, 1)" offset="0.66"></stop></linearGradient></defs></svg>