<svg xmlns="http://www.w3.org/2000/svg" version="1.1" xmlns:xlink="http://www.w3.org/1999/xlink" xmlns:svgjs="http://svgjs.dev/svgjs" width="1440" height="560" preserveAspectRatio="none" viewBox="0 0 1440 560"><g mask="url(&quot;#SvgjsMask1003&quot;)" fill="none"><path d="M56.1 -24.57L121.05 12.93L121.05 87.93L56.1 125.43L-8.85 87.93L-8.85 12.93zM56.1 200.43L121.05 237.93L121.05 312.93L56.1 350.43L-8.85 312.93L-8.85 237.93zM380.87 312.93L445.82 350.43L445.82 425.43L380.87 462.93L315.92 425.43L315.92 350.43zM315.92 425.43L380.87 462.93L380.87 537.93L315.92 575.43L250.96 537.93L250.96 462.93zM510.78 87.93L575.73 125.43L575.73 200.43L510.78 237.93L445.82 200.43L445.82 125.43zM510.78 312.93L575.73 350.43L575.73 425.43L510.78 462.93L445.82 425.43L445.82 350.43zM575.73 -24.57L640.68 12.93L640.68 87.93L575.73 125.43L510.78 87.93L510.78 12.93zM705.64 425.43L770.59 462.93L770.59 537.93L705.64 575.43L640.68 537.93L640.68 462.93zM770.59 537.93L835.55 575.43L835.55 650.43L770.59 687.93L705.64 650.43L705.64 575.43zM835.54 425.43L900.5 462.93L900.5 537.93L835.54 575.43L770.59 537.93L770.59 462.93zM1030.41 87.93L1095.36 125.43L1095.36 200.43L1030.41 237.93L965.45 200.43L965.45 125.43zM1030.41 537.93L1095.36 575.43L1095.36 650.43L1030.41 687.93L965.45 650.43L965.45 575.43zM1095.36 -24.57L1160.31 12.93L1160.31 87.93L1095.36 125.43L1030.41 87.93L1030.41 12.93zM1225.27 -24.57L1290.22 12.93L1290.22 87.93L1225.27 125.43L1160.31 87.93L1160.31 12.93zM1290.22 537.93L1355.17 575.43L1355.17 650.43L1290.22 687.93L1225.27 650.43L1225.27 575.43zM1355.17 -24.57L1420.13 12.93L1420.13 87.93L1355.17 125.43L1290.22 87.93L1290.22 12.93zM1485.08 -24.57L1550.04 12.93L1550.04 87.93L1485.08 125.43L1420.13 87.93L1420.13 12.93zM1550.04 87.93L1614.99 125.43L1614.99 200.43L1550.04 237.93L1485.08 200.43L1485.08 125.43zM1485.08 425.43L1550.04 462.93L1550.04 537.93L1485.08 575.43L1420.13 537.93L1420.13 462.93zM1550.04 537.93L1614.99 575.43L1614.99 650.43L1550.04 687.93L1485.08 650.43L1485.08 575.43z" stroke="rgba(0, 0, 0, 1)" stroke-width="2"></path><path d="M48.6 -24.57 a7.5 7.5 0 1 0 15 0 a7.5 7.5 0 1 0 -15 0zM113.55 12.93 a7.5 7.5 0 1 0 15 0 a7.5 7.5 0 1 0 -15 0zM113.55 87.93 a7.5 7.5 0 1 0 15 0 a7.5 7.5 0 1 0 -15 0zM48.6 125.43 a7.5 7.5 0 1 0 15 0 a7.5 7.5 0 1 0 -15 0zM-16.35 87.93 a7.5 7.5 0 1 0 15 0 a7.5 7.5 0 1 0 -15 0zM-16.35 12.93 a7.5 7.5 0 1 0 15 0 a7.5 7.5 0 1 0 -15 0zM48.6 200.43 a7.5 7.5 0 1 0 15 0 a7.5 7.5 0 1 0 -15 0zM113.55 237.93 a7.5 7.5 0 1 0 15 0 a7.5 7.5 0 1 0 -15 0zM113.55 312.93 a7.5 7.5 0 1 0 15 0 a7.5 7.5 0 1 0 -15 0zM48.6 350.43 a7.5 7.5 0 1 0 15 0 a7.5 7.5 0 1 0 -15 0zM-16.35 312.93 a7.5 7.5 0 1 0 15 0 a7.5 7.5 0 1 0 -15 0zM-16.35 237.93 a7.5 7.5 0 1 0 15 0 a7.5 7.5 0 1 0 -15 0zM373.37 312.93 a7.5 7.5 0 1 0 15 0 a7.5 7.5 0 1 0 -15 0zM438.32 350.43 a7.5 7.5 0 1 0 15 0 a7.5 7.5 0 1 0 -15 0zM438.32 425.43 a7.5 7.5 0 1 0 15 0 a7.5 7.5 0 1 0 -15 0zM373.37 462.93 a7.5 7.5 0 1 0 15 0 a7.5 7.5 0 1 0 -15 0zM308.42 425.43 a7.5 7.5 0 1 0 15 0 a7.5 7.5 0 1 0 -15 0zM308.42 350.43 a7.5 7.5 0 1 0 15 0 a7.5 7.5 0 1 0 -15 0zM373.37 537.93 a7.5 7.5 0 1 0 15 0 a7.5 7.5 0 1 0 -15 0zM308.42 575.43 a7.5 7.5 0 1 0 15 0 a7.5 7.5 0 1 0 -15 0zM243.46 537.93 a7.5 7.5 0 1 0 15 0 a7.5 7.5 0 1 0 -15 0zM243.46 462.93 a7.5 7.5 0 1 0 15 0 a7.5 7.5 0 1 0 -15 0zM503.28 87.93 a7.5 7.5 0 1 0 15 0 a7.5 7.5 0 1 0 -15 0zM568.23 125.43 a7.5 7.5 0 1 0 15 0 a7.5 7.5 0 1 0 -15 0zM568.23 200.43 a7.5 7.5 0 1 0 15 0 a7.5 7.5 0 1 0 -15 0zM503.28 237.93 a7.5 7.5 0 1 0 15 0 a7.5 7.5 0 1 0 -15 0zM438.32 200.43 a7.5 7.5 0 1 0 15 0 a7.5 7.5 0 1 0 -15 0zM438.32 125.43 a7.5 7.5 0 1 0 15 0 a7.5 7.5 0 1 0 -15 0zM503.28 312.93 a7.5 7.5 0 1 0 15 0 a7.5 7.5 0 1 0 -15 0zM568.23 350.43 a7.5 7.5 0 1 0 15 0 a7.5 7.5 0 1 0 -15 0zM568.23 425.43 a7.5 7.5 0 1 0 15 0 a7.5 7.5 0 1 0 -15 0zM503.28 462.93 a7.5 7.5 0 1 0 15 0 a7.5 7.5 0 1 0 -15 0zM568.23 -24.57 a7.5 7.5 0 1 0 15 0 a7.5 7.5 0 1 0 -15 0zM633.18 12.93 a7.5 7.5 0 1 0 15 0 a7.5 7.5 0 1 0 -15 0zM633.18 87.93 a7.5 7.5 0 1 0 15 0 a7.5 7.5 0 1 0 -15 0zM503.28 12.93 a7.5 7.5 0 1 0 15 0 a7.5 7.5 0 1 0 -15 0zM698.14 425.43 a7.5 7.5 0 1 0 15 0 a7.5 7.5 0 1 0 -15 0zM763.09 462.93 a7.5 7.5 0 1 0 15 0 a7.5 7.5 0 1 0 -15 0zM763.09 537.93 a7.5 7.5 0 1 0 15 0 a7.5 7.5 0 1 0 -15 0zM698.14 575.43 a7.5 7.5 0 1 0 15 0 a7.5 7.5 0 1 0 -15 0zM633.18 537.93 a7.5 7.5 0 1 0 15 0 a7.5 7.5 0 1 0 -15 0zM633.18 462.93 a7.5 7.5 0 1 0 15 0 a7.5 7.5 0 1 0 -15 0zM828.05 575.43 a7.5 7.5 0 1 0 15 0 a7.5 7.5 0 1 0 -15 0zM828.05 650.43 a7.5 7.5 0 1 0 15 0 a7.5 7.5 0 1 0 -15 0zM763.09 687.93 a7.5 7.5 0 1 0 15 0 a7.5 7.5 0 1 0 -15 0zM698.14 650.43 a7.5 7.5 0 1 0 15 0 a7.5 7.5 0 1 0 -15 0zM828.04 425.43 a7.5 7.5 0 1 0 15 0 a7.5 7.5 0 1 0 -15 0zM893 462.93 a7.5 7.5 0 1 0 15 0 a7.5 7.5 0 1 0 -15 0zM893 537.93 a7.5 7.5 0 1 0 15 0 a7.5 7.5 0 1 0 -15 0zM828.04 575.43 a7.5 7.5 0 1 0 15 0 a7.5 7.5 0 1 0 -15 0zM1022.91 87.93 a7.5 7.5 0 1 0 15 0 a7.5 7.5 0 1 0 -15 0zM1087.86 125.43 a7.5 7.5 0 1 0 15 0 a7.5 7.5 0 1 0 -15 0zM1087.86 200.43 a7.5 7.5 0 1 0 15 0 a7.5 7.5 0 1 0 -15 0zM1022.91 237.93 a7.5 7.5 0 1 0 15 0 a7.5 7.5 0 1 0 -15 0zM957.95 200.43 a7.5 7.5 0 1 0 15 0 a7.5 7.5 0 1 0 -15 0zM957.95 125.43 a7.5 7.5 0 1 0 15 0 a7.5 7.5 0 1 0 -15 0zM1022.91 537.93 a7.5 7.5 0 1 0 15 0 a7.5 7.5 0 1 0 -15 0zM1087.86 575.43 a7.5 7.5 0 1 0 15 0 a7.5 7.5 0 1 0 -15 0zM1087.86 650.43 a7.5 7.5 0 1 0 15 0 a7.5 7.5 0 1 0 -15 0zM1022.91 687.93 a7.5 7.5 0 1 0 15 0 a7.5 7.5 0 1 0 -15 0zM957.95 650.43 a7.5 7.5 0 1 0 15 0 a7.5 7.5 0 1 0 -15 0zM957.95 575.43 a7.5 7.5 0 1 0 15 0 a7.5 7.5 0 1 0 -15 0zM1087.86 -24.57 a7.5 7.5 0 1 0 15 0 a7.5 7.5 0 1 0 -15 0zM1152.81 12.93 a7.5 7.5 0 1 0 15 0 a7.5 7.5 0 1 0 -15 0zM1152.81 87.93 a7.5 7.5 0 1 0 15 0 a7.5 7.5 0 1 0 -15 0zM1022.91 12.93 a7.5 7.5 0 1 0 15 0 a7.5 7.5 0 1 0 -15 0zM1217.77 -24.57 a7.5 7.5 0 1 0 15 0 a7.5 7.5 0 1 0 -15 0zM1282.72 12.93 a7.5 7.5 0 1 0 15 0 a7.5 7.5 0 1 0 -15 0zM1282.72 87.93 a7.5 7.5 0 1 0 15 0 a7.5 7.5 0 1 0 -15 0zM1217.77 125.43 a7.5 7.5 0 1 0 15 0 a7.5 7.5 0 1 0 -15 0zM1282.72 537.93 a7.5 7.5 0 1 0 15 0 a7.5 7.5 0 1 0 -15 0zM1347.67 575.43 a7.5 7.5 0 1 0 15 0 a7.5 7.5 0 1 0 -15 0zM1347.67 650.43 a7.5 7.5 0 1 0 15 0 a7.5 7.5 0 1 0 -15 0zM1282.72 687.93 a7.5 7.5 0 1 0 15 0 a7.5 7.5 0 1 0 -15 0zM1217.77 650.43 a7.5 7.5 0 1 0 15 0 a7.5 7.5 0 1 0 -15 0zM1217.77 575.43 a7.5 7.5 0 1 0 15 0 a7.5 7.5 0 1 0 -15 0zM1347.67 -24.57 a7.5 7.5 0 1 0 15 0 a7.5 7.5 0 1 0 -15 0zM1412.63 12.93 a7.5 7.5 0 1 0 15 0 a7.5 7.5 0 1 0 -15 0zM1412.63 87.93 a7.5 7.5 0 1 0 15 0 a7.5 7.5 0 1 0 -15 0zM1347.67 125.43 a7.5 7.5 0 1 0 15 0 a7.5 7.5 0 1 0 -15 0zM1477.58 -24.57 a7.5 7.5 0 1 0 15 0 a7.5 7.5 0 1 0 -15 0zM1542.54 12.93 a7.5 7.5 0 1 0 15 0 a7.5 7.5 0 1 0 -15 0zM1542.54 87.93 a7.5 7.5 0 1 0 15 0 a7.5 7.5 0 1 0 -15 0zM1477.58 125.43 a7.5 7.5 0 1 0 15 0 a7.5 7.5 0 1 0 -15 0zM1607.49 125.43 a7.5 7.5 0 1 0 15 0 a7.5 7.5 0 1 0 -15 0zM1607.49 200.43 a7.5 7.5 0 1 0 15 0 a7.5 7.5 0 1 0 -15 0zM1542.54 237.93 a7.5 7.5 0 1 0 15 0 a7.5 7.5 0 1 0 -15 0zM1477.58 200.43 a7.5 7.5 0 1 0 15 0 a7.5 7.5 0 1 0 -15 0zM1477.58 425.43 a7.5 7.5 0 1 0 15 0 a7.5 7.5 0 1 0 -15 0zM1542.54 462.93 a7.5 7.5 0 1 0 15 0 a7.5 7.5 0 1 0 -15 0zM1542.54 537.93 a7.5 7.5 0 1 0 15 0 a7.5 7.5 0 1 0 -15 0zM1477.58 575.43 a7.5 7.5 0 1 0 15 0 a7.5 7.5 0 1 0 -15 0zM1412.63 537.93 a7.5 7.5 0 1 0 15 0 a7.5 7.5 0 1 0 -15 0zM1412.63 462.93 a7.5 7.5 0 1 0 15 0 a7.5 7.5 0 1 0 -15 0zM1607.49 575.43 a7.5 7.5 0 1 0 15 0 a7.5 7.5 0 1 0 -15 0zM1607.49 650.43 a7.5 7.5 0 1 0 15 0 a7.5 7.5 0 1 0 -15 0zM1542.54 687.93 a7.5 7.5 0 1 0 15 0 a7.5 7.5 0 1 0 -15 0zM1477.58 650.43 a7.5 7.5 0 1 0 15 0 a7.5 7.5 0 1 0 -15 0z" fill="rgba(0, 0, 0, 1)"></path><path d="M44.88 204.92L88.19 229.92L88.19 279.92L44.88 304.92L1.58 279.92L1.58 229.92zM1.58 279.92L44.88 304.92L44.88 354.92L1.58 379.92L-41.72 354.92L-41.72 304.92zM1.58 429.92L44.88 454.92L44.88 504.92L1.58 529.92L-41.72 504.92L-41.72 454.92zM44.88 504.92L88.19 529.92L88.19 579.92L44.88 604.92L1.58 579.92L1.58 529.92zM88.19 429.92L131.49 454.92L131.49 504.92L88.19 529.92L44.88 504.92L44.88 454.92zM131.49 504.92L174.79 529.92L174.79 579.92L131.49 604.92L88.19 579.92L88.19 529.92zM218.09 54.92L261.39 79.92L261.39 129.92L218.09 154.92L174.79 129.92L174.79 79.92zM174.79 129.92L218.09 154.92L218.09 204.92L174.79 229.92L131.49 204.92L131.49 154.92zM174.79 279.92L218.09 304.92L218.09 354.92L174.79 379.92L131.49 354.92L131.49 304.92zM304.7 54.92L348 79.92L348 129.92L304.7 154.92L261.39 129.92L261.39 79.92zM261.39 429.92L304.7 454.92L304.7 504.92L261.39 529.92L218.09 504.92L218.09 454.92zM348 279.92L391.3 304.92L391.3 354.92L348 379.92L304.7 354.92L304.7 304.92zM348 429.92L391.3 454.92L391.3 504.92L348 529.92L304.7 504.92L304.7 454.92zM434.61 -20.08L477.91 4.92L477.91 54.92L434.61 79.92L391.3 54.92L391.3 4.92zM434.61 279.92L477.91 304.92L477.91 354.92L434.61 379.92L391.3 354.92L391.3 304.92zM521.21 279.92L564.51 304.92L564.51 354.92L521.21 379.92L477.91 354.92L477.91 304.92zM564.51 354.92L607.82 379.92L607.82 429.92L564.51 454.92L521.21 429.92L521.21 379.92zM521.21 429.92L564.51 454.92L564.51 504.92L521.21 529.92L477.91 504.92L477.91 454.92zM607.82 129.92L651.12 154.92L651.12 204.92L607.82 229.92L564.51 204.92L564.51 154.92zM651.12 204.92L694.42 229.92L694.42 279.92L651.12 304.92L607.82 279.92L607.82 229.92zM694.42 129.92L737.72 154.92L737.72 204.92L694.42 229.92L651.12 204.92L651.12 154.92zM737.72 354.92L781.03 379.92L781.03 429.92L737.72 454.92L694.42 429.92L694.42 379.92zM694.42 429.92L737.72 454.92L737.72 504.92L694.42 529.92L651.12 504.92L651.12 454.92zM824.33 504.92L867.63 529.92L867.63 579.92L824.33 604.92L781.03 579.92L781.03 529.92zM867.63 129.92L910.93 154.92L910.93 204.92L867.63 229.92L824.33 204.92L824.33 154.92zM954.24 129.92L997.54 154.92L997.54 204.92L954.24 229.92L910.93 204.92L910.93 154.92zM954.24 279.92L997.54 304.92L997.54 354.92L954.24 379.92L910.93 354.92L910.93 304.92zM997.54 504.92L1040.84 529.92L1040.84 579.92L997.54 604.92L954.24 579.92L954.24 529.92zM1084.14 54.92L1127.44 79.92L1127.44 129.92L1084.14 154.92L1040.84 129.92L1040.84 79.92zM1084.14 354.92L1127.44 379.92L1127.44 429.92L1084.14 454.92L1040.84 429.92L1040.84 379.92zM1040.84 429.92L1084.14 454.92L1084.14 504.92L1040.84 529.92L997.54 504.92L997.54 454.92zM1170.75 54.92L1214.05 79.92L1214.05 129.92L1170.75 154.92L1127.44 129.92L1127.44 79.92zM1127.44 129.92L1170.75 154.92L1170.75 204.92L1127.44 229.92L1084.14 204.92L1084.14 154.92zM1170.75 204.92L1214.05 229.92L1214.05 279.92L1170.75 304.92L1127.44 279.92L1127.44 229.92zM1214.05 429.92L1257.35 454.92L1257.35 504.92L1214.05 529.92L1170.75 504.92L1170.75 454.92zM1257.35 504.92L1300.65 529.92L1300.65 579.92L1257.35 604.92L1214.05 579.92L1214.05 529.92zM1343.96 54.92L1387.26 79.92L1387.26 129.92L1343.96 154.92L1300.65 129.92L1300.65 79.92zM1300.65 129.92L1343.96 154.92L1343.96 204.92L1300.65 229.92L1257.35 204.92L1257.35 154.92zM1343.96 204.92L1387.26 229.92L1387.26 279.92L1343.96 304.92L1300.65 279.92L1300.65 229.92zM1430.56 204.92L1473.87 229.92L1473.87 279.92L1430.56 304.92L1387.26 279.92L1387.26 229.92zM1430.56 354.92L1473.87 379.92L1473.87 429.92L1430.56 454.92L1387.26 429.92L1387.26 379.92zM1387.26 429.92L1430.56 454.92L1430.56 504.92L1387.26 529.92L1343.96 504.92L1343.96 454.92z" stroke="rgba(107, 55, 209, 1)" stroke-width="2"></path></g><defs><mask id="SvgjsMask1003"><rect width="1440" height="560" fill="#ffffff"></rect></mask></defs></svg>